<?xml version="1.0" encoding="UTF-8"?>
<svg width="750px" height="1334px" viewBox="0 0 750 1334" version="1.1" xmlns="http://www.w3.org/2000/svg" xmlns:xlink="http://www.w3.org/1999/xlink" style="background: #191919;">
    <!-- Generator: Sketch 48.2 (47327) - http://www.bohemiancoding.com/sketch -->
    <title>0-1闪屏@1x</title>
    <desc>Created with Sketch.</desc>
    <defs>
        <linearGradient x1="50%" y1="0%" x2="50%" y2="100%" id="linearGradient-1">
            <stop stop-color="#EA4200" offset="0%"></stop>
            <stop stop-color="#BB3804" offset="100%"></stop>
        </linearGradient>
    </defs>
    <g id="Page-1" stroke="none" stroke-width="1" fill="none" fill-rule="evenodd">
        <g id="0-1闪屏">
            <g id="Group-6" transform="translate(-668.000000, 0.000000)">
                <g id="Group" transform="translate(668.000000, 0.000000)">
                    <g id="olu-eletu-13086"></g>
                </g>
                <g id="Group-4" transform="translate(0.000000, 520.000000)" fill="gray">
                    <g id="Group-5" transform="translate(787.000000, 0.000000)">
                        <g id="Group-2" transform="translate(0.000000, 65.000000)" font-family="PingFangSC-Regular, PingFang SC" font-size="32" font-weight="normal" letter-spacing="23">
                            <text id="多维链接创造价值">
                                <tspan x="45.75" y="34">多维链接创造价</tspan>
                                <tspan x="430.75" y="34">值</tspan>
                            </text> 
                        </g>
                        <g id="Page-1" transform="translate(50.000000, 0.000000)">
                            <path d="M249.786988,51 L216.312263,51 C213.989489,51 212.104868,49.0903834 212.09925,46.7304664 L212.000011,5.28950472 C211.994861,2.92625913 213.876205,1.00523052 216.203193,1 L216.213491,1 C218.535329,1 220.420886,2.90866555 220.426035,5.26905813 L220.515445,42.4409617 L249.786988,42.4409617 C252.113975,42.4409617 254,44.3567597 254,46.7204808 C254,49.0842019 252.113975,51 249.786988,51" id="Fill-1"></path>
                            <path d="M408.85205,41.9442719 L388.807378,20.8357416 L405.440963,7.47841081 C407.25845,6.01810737 407.534184,3.37959928 406.056062,1.58459448 C404.577469,-0.211341332 401.906385,-0.483198906 400.088427,0.976639021 L380.567414,16.6531384 C380.237005,16.8244459 379.92215,17.0385803 379.636518,17.3029897 C379.501715,17.4277463 379.381523,17.5604165 379.266987,17.6972763 L373.484118,22.341665 L373.484118,4.18958589 C373.484118,1.87600346 371.58509,0 369.242059,0 C366.899028,0 365,1.87600346 365,4.18958589 L365,44.8104141 C365,47.1244621 366.899028,49 369.242059,49 C371.58509,49 373.484118,47.1244621 373.484118,44.8104141 L373.484118,33.1410209 L382.208148,26.1355678 L402.663829,47.6765564 C403.499043,48.5559039 404.627431,49 405.759118,49 C406.798893,49 407.841026,48.6247993 408.660215,47.8664843 C410.368822,46.2832863 410.454606,43.6322095 408.85205,41.9442719" id="Fill-3"></path>
                            <path d="M345.979713,23.5801544 C345.663617,10.250561 336.316137,1 323.019815,1 C316.494082,1 310.603372,3.35186171 306.432319,7.6234359 C302.395725,11.7566653 300.134459,17.5272126 300.025948,23.9115164 C300.009907,24.0650744 300,24.2195832 300,24.3769444 L300,46.7212946 C300,49.0840908 301.900823,51 304.246067,51 C306.591311,51 308.492133,49.0840908 308.492133,46.7212946 L308.492133,24.7035523 C308.499682,24.6003879 308.507702,24.4967482 308.507702,24.3912068 C308.507702,15.5185981 314.339911,9.55741072 323.019815,9.55741072 C331.817665,9.55741072 337.502677,15.3350892 337.502677,24.2766326 C337.502677,24.3108622 337.506923,24.3436656 337.507867,24.3778953 L337.507867,46.6071958 C337.507867,48.969992 339.408689,50.8859012 341.753933,50.8859012 C344.099177,50.8859012 346,48.969992 346,46.6071958 L346,23.9823527 C346,23.8468604 345.99198,23.7127943 345.979713,23.5801544" id="Fill-6"></path>
                            <path d="M272,3.99977784 C272,1.79061372 273.790713,0 276,0 C278.209287,0 280,1.79061372 280,3.99977784 C280,6.20894196 278.209287,8 276,8 C273.790713,8 272,6.20894196 272,3.99977784" id="Fill-8"></path>
                            <path d="M17.6799877,29.0951126 L26.0001492,13.1772395 L34.3198423,29.0951126 L17.6799877,29.0951126 Z M51.5082532,43.7207423 L45.2066479,31.6639214 C45.1260743,31.4772113 45.0305102,31.2985776 44.9251087,31.1261201 L29.8423858,2.26918495 C29.0661622,0.784055232 27.5497857,-0.0411751992 25.9987438,0.00158285425 C24.4481704,-0.0402250202 22.9336677,0.7854805 22.1579126,2.26918495 L0.492045172,43.7207423 C-0.598977642,45.8073353 0.185209645,48.3951477 2.24264726,49.501156 C2.87224565,49.8394198 3.54728381,50 4.2134214,50 C5.72464493,50 7.18527573,49.1738194 7.94229285,47.7257466 L13.2100264,37.6467233 L38.7898035,37.6467233 L44.0580055,47.7257466 C44.8150227,49.1742945 46.2756535,50 47.786877,50 C48.4525461,50 49.1285212,49.8394198 49.7576511,49.501156 C51.8146203,48.3951477 52.5988076,45.8073353 51.5082532,43.7207423 Z" id="Fill-10"></path>
                            <path d="M93.6753691,40.6 L70.3851498,40.6 L70.3851498,28.7 L93.6753691,28.7 C96.950236,28.7 99.6148502,31.3693333 99.6148502,34.65 C99.6148502,37.9306667 96.950236,40.6 93.6753691,40.6 M99.6148502,14.35 C99.6148502,17.6306667 96.950236,20.3 93.6753691,20.3 L70.3851498,20.3 L70.3851498,8.4 L93.6753691,8.4 C96.950236,8.4 99.6148502,11.0693333 99.6148502,14.35 M103.791586,24.5 C106.390051,21.9011333 108,18.3101333 108,14.35 C108,6.4372 101.57418,0 93.6753691,0 L66.1925749,0 C63.876876,0 62,1.8802 62,4.2 L62,44.8 C62,47.1198 63.876876,49 66.1925749,49 L93.6753691,49 C101.57418,49 108,42.5628 108,34.65 C108,30.6898667 106.390051,27.0988667 103.791586,24.5" id="Fill-13"></path>
                            <path d="M152.222188,50 L126.325213,50 C123.936734,50 122,48.0844752 122,45.7210912 C122,43.3577073 123.936734,41.4421824 126.325213,41.4421824 L152.222188,41.4421824 C155.60066,41.4421824 158.349573,38.7226982 158.349573,35.380395 C158.349573,32.2800879 155.835663,29.5872279 152.720549,29.3209847 C152.377895,29.3200339 152.007369,29.3157549 152.007369,29.3157549 L136.988306,29.3086234 C136.971486,29.3086234 136.954665,29.3086234 136.937845,29.308148 C128.818459,29.2102085 122.212897,22.6211644 122.212897,14.619605 C122.212897,6.55814086 128.842007,0 136.990709,0 L159.925393,0 C162.314352,0 164.250606,1.91552483 164.250606,4.27890878 C164.250606,6.64229273 162.314352,8.55781757 159.925393,8.55781757 L136.990709,8.55781757 C133.611756,8.55781757 130.863323,11.2773018 130.863323,14.619605 C130.863323,17.9523995 133.623771,20.6980327 137.020985,20.7508059 L152.056388,20.7584128 C152.106849,20.7588882 152.552346,20.7636426 152.886348,20.7636426 C152.981022,20.7636426 153.075697,20.7669706 153.170851,20.7726758 C160.925478,21.2785379 167,27.6949994 167,35.380395 C167,43.4418591 160.37089,50 152.222188,50" id="Fill-16"></path>
                            <path d="M280.004868,13.0445009 C278.167229,13.0298251 278.946033,13.0298251 276.477578,13.0066278 C274.000652,13.0066278 275.333538,13 272.989651,13 L270,46.7392734 C276.392373,51.0250909 269.914795,46.7051876 276.477578,51 C282.309391,47.1786017 276.579226,51.0250909 283,46.7392734 L280.004868,13.0445009 Z" id="Fill-18"></path>
                        </g>
                    </g>
                </g> 
            </g>
        </g>
    </g>
</svg>